<svg xmlns="http://www.w3.org/2000/svg" width="485" height="638" viewBox="0 0 485 638"><title>face</title><path d="M542.5,695.5c-64.61,0-125.37-33.11-171.08-93.24S300.5,462.1,300.5,377s25.19-165.1,70.92-225.26S477.89,58.5,542.5,58.5s125.37,33.11,171.08,93.24S784.5,291.9,784.5,377s-25.19,165.1-70.92,225.26S607.11,695.5,542.5,695.5Z" transform="translate(-300 -58)" style="fill:#fff"/><path d="M542.5,59c32.57,0,64.16,8.39,93.91,24.94,28.76,16,54.58,38.91,76.77,68.1s39.63,63.22,51.81,101.1a413.06,413.06,0,0,1,0,247.73c-12.18,37.88-29.61,71.89-51.81,101.1s-48,52.1-76.77,68.1C606.66,686.61,575.07,695,542.5,695s-64.16-8.39-93.91-24.94c-28.76-16-54.58-38.91-76.77-68.1S332.19,538.74,320,500.86a413.06,413.06,0,0,1,0-247.73c12.18-37.88,29.61-71.89,51.81-101.1s48-52.1,76.77-68.1C478.34,67.39,509.93,59,542.5,59m0-1C408.57,58,300,200.82,300,377S408.57,696,542.5,696,785,553.18,785,377,676.43,58,542.5,58Z" transform="translate(-300 -58)"/><polygon points="270.5 187.5 454.5 187.5 475.5 290.5 269.5 290.5 270.5 187.5" style="fill:#fff;stroke:#000;stroke-miterlimit:10"/><polygon points="227.5 186.5 227.5 291.5 31.5 291.5 60.5 185.5 227.5 186.5" style="fill:#fff;stroke:#000;stroke-miterlimit:10"/><polygon points="232.5 258.5 179.5 440.5 311.5 440.5 264.5 249.5 232.5 258.5" style="fill:#fff;stroke:#000;stroke-miterlimit:10"/><polygon points="163.5 438.5 126.5 509.5 369.5 509.5 332.5 426.5 167.5 429.5 163.5 438.5" style="fill:#fff;stroke:#000;stroke-miterlimit:10"/><polygon points="151.5 493.5 341.5 492.5 384.55 576.52 292.5 634.5 127.5 605.5 90.5 558.5 131.5 519.5 151.5 493.5" style="fill:#fff;stroke:#000;stroke-miterlimit:10"/></svg>